<?xml version="1.0" standalone="no"?>
<!DOCTYPE svg PUBLIC "-//W3C//DTD SVG 1.1//EN" "http://www.w3.org/Graphics/SVG/1.1/DTD/svg11.dtd">
<svg version="1.1" width="1400" height="470" onload="init(evt)" viewBox="0 0 1400 470" xmlns="http://www.w3.org/2000/svg" xmlns:xlink="http://www.w3.org/1999/xlink">
<!-- Flame graph stack visualization. See https://github.com/brendangregg/FlameGraph for latest version, and http://www.brendangregg.com/flamegraphs.html for examples. -->
<!-- NOTES:  -->
<defs>
	<linearGradient id="background" y1="0" y2="1" x1="0" x2="0" >
		<stop stop-color="#eeeeee" offset="5%" />
		<stop stop-color="#eeeeb0" offset="95%" />
	</linearGradient>
</defs>
<style type="text/css">
	text { font-family:Verdana; font-size:12px; fill:rgb(0,0,0); }
	#search, #ignorecase { opacity:0.1; cursor:pointer; }
	#search:hover, #search.show, #ignorecase:hover, #ignorecase.show { opacity:1; }
	#subtitle { text-anchor:middle; font-color:rgb(160,160,160); }
	#title { text-anchor:middle; font-size:17px}
	#unzoom { cursor:pointer; }
	#frames > *:hover { stroke:black; stroke-width:0.5; cursor:pointer; }
	.hide { display:none; }
	.parent { opacity:0.5; }
</style>
<script type="text/ecmascript">
<![CDATA[
	"use strict";
	var details, searchbtn, unzoombtn, matchedtxt, svg, searching, currentSearchTerm, ignorecase, ignorecaseBtn;
	function init(evt) {
		details = document.getElementById("details").firstChild;
		searchbtn = document.getElementById("search");
		ignorecaseBtn = document.getElementById("ignorecase");
		unzoombtn = document.getElementById("unzoom");
		matchedtxt = document.getElementById("matched");
		svg = document.getElementsByTagName("svg")[0];
		searching = 0;
		currentSearchTerm = null;

		// use GET parameters to restore a flamegraphs state.
		var params = get_params();
		if (params.x && params.y)
			zoom(find_group(document.querySelector('[x="' + params.x + '"][y="' + params.y + '"]')));
                if (params.s) search(params.s);
	}

	// event listeners
	window.addEventListener("click", function(e) {
		var target = find_group(e.target);
		if (target) {
			if (target.nodeName == "a") {
				if (e.ctrlKey === false) return;
				e.preventDefault();
			}
			if (target.classList.contains("parent")) unzoom(true);
			zoom(target);
			if (!document.querySelector('.parent')) {
				// we have basically done a clearzoom so clear the url
				var params = get_params();
				if (params.x) delete params.x;
				if (params.y) delete params.y;
				history.replaceState(null, null, parse_params(params));
				unzoombtn.classList.add("hide");
				return;
			}

			// set parameters for zoom state
			var el = target.querySelector("rect");
			if (el && el.attributes && el.attributes.y && el.attributes._orig_x) {
				var params = get_params()
				params.x = el.attributes._orig_x.value;
				params.y = el.attributes.y.value;
				history.replaceState(null, null, parse_params(params));
			}
		}
		else if (e.target.id == "unzoom") clearzoom();
		else if (e.target.id == "search") search_prompt();
		else if (e.target.id == "ignorecase") toggle_ignorecase();
	}, false)

	// mouse-over for info
	// show
	window.addEventListener("mouseover", function(e) {
		var target = find_group(e.target);
		if (target) details.nodeValue = "Function: " + g_to_text(target);
	}, false)

	// clear
	window.addEventListener("mouseout", function(e) {
		var target = find_group(e.target);
		if (target) details.nodeValue = ' ';
	}, false)

	// ctrl-F for search
	// ctrl-I to toggle case-sensitive search
	window.addEventListener("keydown",function (e) {
		if (e.keyCode === 114 || (e.ctrlKey && e.keyCode === 70)) {
			e.preventDefault();
			search_prompt();
		}
		else if (e.ctrlKey && e.keyCode === 73) {
			e.preventDefault();
			toggle_ignorecase();
		}
	}, false)

	// functions
	function get_params() {
		var params = {};
		var paramsarr = window.location.search.substr(1).split('&');
		for (var i = 0; i < paramsarr.length; ++i) {
			var tmp = paramsarr[i].split("=");
			if (!tmp[0] || !tmp[1]) continue;
			params[tmp[0]]  = decodeURIComponent(tmp[1]);
		}
		return params;
	}
	function parse_params(params) {
		var uri = "?";
		for (var key in params) {
			uri += key + '=' + encodeURIComponent(params[key]) + '&';
		}
		if (uri.slice(-1) == "&")
			uri = uri.substring(0, uri.length - 1);
		if (uri == '?')
			uri = window.location.href.split('?')[0];
		return uri;
	}
	function find_child(node, selector) {
		var children = node.querySelectorAll(selector);
		if (children.length) return children[0];
	}
	function find_group(node) {
		var parent = node.parentElement;
		if (!parent) return;
		if (parent.id == "frames") return node;
		return find_group(parent);
	}
	function orig_save(e, attr, val) {
		if (e.attributes["_orig_" + attr] != undefined) return;
		if (e.attributes[attr] == undefined) return;
		if (val == undefined) val = e.attributes[attr].value;
		e.setAttribute("_orig_" + attr, val);
	}
	function orig_load(e, attr) {
		if (e.attributes["_orig_"+attr] == undefined) return;
		e.attributes[attr].value = e.attributes["_orig_" + attr].value;
		e.removeAttribute("_orig_"+attr);
	}
	function g_to_text(e) {
		var text = find_child(e, "title").firstChild.nodeValue;
		return (text)
	}
	function g_to_func(e) {
		var func = g_to_text(e);
		// if there's any manipulation we want to do to the function
		// name before it's searched, do it here before returning.
		return (func);
	}
	function update_text(e) {
		var r = find_child(e, "rect");
		var t = find_child(e, "text");
		var w = parseFloat(r.attributes.width.value) -3;
		var txt = find_child(e, "title").textContent.replace(/\([^(]*\)$/,"");
		t.attributes.x.value = parseFloat(r.attributes.x.value) + 3;

		// Smaller than this size won't fit anything
		if (w < 2 * 12 * 0.59) {
			t.textContent = "";
			return;
		}

		t.textContent = txt;
		var sl = t.getSubStringLength(0, txt.length);
		// check if only whitespace or if we can fit the entire string into width w
		if (/^ *$/.test(txt) || sl < w)
			return;

		// this isn't perfect, but gives a good starting point
		// and avoids calling getSubStringLength too often
		var start = Math.floor((w/sl) * txt.length);
		for (var x = start; x > 0; x = x-2) {
			if (t.getSubStringLength(0, x + 2) <= w) {
				t.textContent = txt.substring(0, x) + "..";
				return;
			}
		}
		t.textContent = "";
	}

	// zoom
	function zoom_reset(e) {
		if (e.attributes != undefined) {
			orig_load(e, "x");
			orig_load(e, "width");
		}
		if (e.childNodes == undefined) return;
		for (var i = 0, c = e.childNodes; i < c.length; i++) {
			zoom_reset(c[i]);
		}
	}
	function zoom_child(e, x, ratio) {
		if (e.attributes != undefined) {
			if (e.attributes.x != undefined) {
				orig_save(e, "x");
				e.attributes.x.value = (parseFloat(e.attributes.x.value) - x - 10) * ratio + 10;
				if (e.tagName == "text")
					e.attributes.x.value = find_child(e.parentNode, "rect[x]").attributes.x.value + 3;
			}
			if (e.attributes.width != undefined) {
				orig_save(e, "width");
				e.attributes.width.value = parseFloat(e.attributes.width.value) * ratio;
			}
		}

		if (e.childNodes == undefined) return;
		for (var i = 0, c = e.childNodes; i < c.length; i++) {
			zoom_child(c[i], x - 10, ratio);
		}
	}
	function zoom_parent(e) {
		if (e.attributes) {
			if (e.attributes.x != undefined) {
				orig_save(e, "x");
				e.attributes.x.value = 10;
			}
			if (e.attributes.width != undefined) {
				orig_save(e, "width");
				e.attributes.width.value = parseInt(svg.width.baseVal.value) - (10 * 2);
			}
		}
		if (e.childNodes == undefined) return;
		for (var i = 0, c = e.childNodes; i < c.length; i++) {
			zoom_parent(c[i]);
		}
	}
	function zoom(node) {
		var attr = find_child(node, "rect").attributes;
		var width = parseFloat(attr.width.value);
		var xmin = parseFloat(attr.x.value);
		var xmax = parseFloat(xmin + width);
		var ymin = parseFloat(attr.y.value);
		var ratio = (svg.width.baseVal.value - 2 * 10) / width;

		// XXX: Workaround for JavaScript float issues (fix me)
		var fudge = 0.0001;

		unzoombtn.classList.remove("hide");

		var el = document.getElementById("frames").children;
		for (var i = 0; i < el.length; i++) {
			var e = el[i];
			var a = find_child(e, "rect").attributes;
			var ex = parseFloat(a.x.value);
			var ew = parseFloat(a.width.value);
			var upstack;
			// Is it an ancestor
			if (0 == 0) {
				upstack = parseFloat(a.y.value) > ymin;
			} else {
				upstack = parseFloat(a.y.value) < ymin;
			}
			if (upstack) {
				// Direct ancestor
				if (ex <= xmin && (ex+ew+fudge) >= xmax) {
					e.classList.add("parent");
					zoom_parent(e);
					update_text(e);
				}
				// not in current path
				else
					e.classList.add("hide");
			}
			// Children maybe
			else {
				// no common path
				if (ex < xmin || ex + fudge >= xmax) {
					e.classList.add("hide");
				}
				else {
					zoom_child(e, xmin, ratio);
					update_text(e);
				}
			}
		}
		search();
	}
	function unzoom(dont_update_text) {
		unzoombtn.classList.add("hide");
		var el = document.getElementById("frames").children;
		for(var i = 0; i < el.length; i++) {
			el[i].classList.remove("parent");
			el[i].classList.remove("hide");
			zoom_reset(el[i]);
			if(!dont_update_text) update_text(el[i]);
		}
		search();
	}
	function clearzoom() {
		unzoom();

		// remove zoom state
		var params = get_params();
		if (params.x) delete params.x;
		if (params.y) delete params.y;
		history.replaceState(null, null, parse_params(params));
	}

	// search
	function toggle_ignorecase() {
		ignorecase = !ignorecase;
		if (ignorecase) {
			ignorecaseBtn.classList.add("show");
		} else {
			ignorecaseBtn.classList.remove("show");
		}
		reset_search();
		search();
	}
	function reset_search() {
		var el = document.querySelectorAll("#frames rect");
		for (var i = 0; i < el.length; i++) {
			orig_load(el[i], "fill")
		}
		var params = get_params();
		delete params.s;
		history.replaceState(null, null, parse_params(params));
	}
	function search_prompt() {
		if (!searching) {
			var term = prompt("Enter a search term (regexp " +
			    "allowed, eg: ^ext4_)"
			    + (ignorecase ? ", ignoring case" : "")
			    + "\nPress Ctrl-i to toggle case sensitivity", "");
			if (term != null) search(term);
		} else {
			reset_search();
			searching = 0;
			currentSearchTerm = null;
			searchbtn.classList.remove("show");
			searchbtn.firstChild.nodeValue = "Search"
			matchedtxt.classList.add("hide");
			matchedtxt.firstChild.nodeValue = ""
		}
	}
	function search(term) {
		if (term) currentSearchTerm = term;
		if (currentSearchTerm === null) return;

		var re = new RegExp(currentSearchTerm, ignorecase ? 'i' : '');
		var el = document.getElementById("frames").children;
		var matches = new Object();
		var maxwidth = 0;
		for (var i = 0; i < el.length; i++) {
			var e = el[i];
			var func = g_to_func(e);
			var rect = find_child(e, "rect");
			if (func == null || rect == null)
				continue;

			// Save max width. Only works as we have a root frame
			var w = parseFloat(rect.attributes.width.value);
			if (w > maxwidth)
				maxwidth = w;

			if (func.match(re)) {
				// highlight
				var x = parseFloat(rect.attributes.x.value);
				orig_save(rect, "fill");
				rect.attributes.fill.value = "rgb(230,0,230)";

				// remember matches
				if (matches[x] == undefined) {
					matches[x] = w;
				} else {
					if (w > matches[x]) {
						// overwrite with parent
						matches[x] = w;
					}
				}
				searching = 1;
			}
		}
		if (!searching)
			return;
		var params = get_params();
		params.s = currentSearchTerm;
		history.replaceState(null, null, parse_params(params));

		searchbtn.classList.add("show");
		searchbtn.firstChild.nodeValue = "Reset Search";

		// calculate percent matched, excluding vertical overlap
		var count = 0;
		var lastx = -1;
		var lastw = 0;
		var keys = Array();
		for (k in matches) {
			if (matches.hasOwnProperty(k))
				keys.push(k);
		}
		// sort the matched frames by their x location
		// ascending, then width descending
		keys.sort(function(a, b){
			return a - b;
		});
		// Step through frames saving only the biggest bottom-up frames
		// thanks to the sort order. This relies on the tree property
		// where children are always smaller than their parents.
		var fudge = 0.0001;	// JavaScript floating point
		for (var k in keys) {
			var x = parseFloat(keys[k]);
			var w = matches[keys[k]];
			if (x >= lastx + lastw - fudge) {
				count += w;
				lastx = x;
				lastw = w;
			}
		}
		// display matched percent
		matchedtxt.classList.remove("hide");
		var pct = 100 * count / maxwidth;
		if (pct != 100) pct = pct.toFixed(1)
		matchedtxt.firstChild.nodeValue = "Matched: " + pct + "%";
	}
]]>
</script>
<rect x="0.0" y="0" width="1400.0" height="470.0" fill="url(#background)"  />
<text id="title" x="700.00" y="24" >pyc nbody P0+P1</text>
<text id="details" x="10.00" y="453" > </text>
<text id="unzoom" x="10.00" y="24" class="hide">Reset Zoom</text>
<text id="search" x="1290.00" y="24" >Search</text>
<text id="ignorecase" x="1374.00" y="24" >ic</text>
<text id="matched" x="1290.00" y="453" > </text>
<g id="frames">
<g >
<title>_dl_sysdep_start (1,746,946 samples, 0.07%)</title><rect x="1174.8" y="341" width="1.0" height="15.0" fill="rgb(234,137,32)" rx="2" ry="2" />
<text  x="1177.79" y="351.5" ></text>
</g>
<g >
<title>__pow (21,081,992 samples, 0.88%)</title><rect x="779.0" y="389" width="12.2" height="15.0" fill="rgb(226,100,24)" rx="2" ry="2" />
<text  x="782.03" y="399.5" ></text>
</g>
<g >
<title>[unknown] (8,002,483 samples, 0.34%)</title><rect x="1158.2" y="277" width="4.7" height="15.0" fill="rgb(210,24,5)" rx="2" ry="2" />
<text  x="1161.24" y="287.5" ></text>
</g>
<g >
<title>__libc_start_main_impl (662,728,594 samples, 27.79%)</title><rect x="791.2" y="373" width="383.6" height="15.0" fill="rgb(218,63,15)" rx="2" ry="2" />
<text  x="794.23" y="383.5" >__libc_start_main_impl</text>
</g>
<g >
<title>[unknown] (3,909,824 samples, 0.16%)</title><rect x="921.4" y="229" width="2.3" height="15.0" fill="rgb(210,24,5)" rx="2" ry="2" />
<text  x="924.39" y="239.5" ></text>
</g>
<g >
<title>[unknown] (3,909,824 samples, 0.16%)</title><rect x="921.4" y="261" width="2.3" height="15.0" fill="rgb(210,24,5)" rx="2" ry="2" />
<text  x="924.39" y="271.5" ></text>
</g>
<g >
<title>PyList_GetItemObj (299,502,363 samples, 12.56%)</title><rect x="118.2" y="389" width="173.3" height="15.0" fill="rgb(223,86,20)" rx="2" ry="2" />
<text  x="121.18" y="399.5" >PyList_GetItemObj</text>
</g>
<g >
<title>[unknown] (61,389,225 samples, 2.57%)</title><rect x="721.7" y="389" width="35.5" height="15.0" fill="rgb(210,24,5)" rx="2" ry="2" />
<text  x="724.68" y="399.5" >[un..</text>
</g>
<g >
<title>PyFloat_FromDouble (12,279,114 samples, 0.51%)</title><rect x="814.0" y="277" width="7.1" height="15.0" fill="rgb(253,222,53)" rx="2" ry="2" />
<text  x="816.98" y="287.5" ></text>
</g>
<g >
<title>[unknown] (3,909,824 samples, 0.16%)</title><rect x="921.4" y="149" width="2.3" height="15.0" fill="rgb(210,24,5)" rx="2" ry="2" />
<text  x="924.39" y="159.5" ></text>
</g>
<g >
<title>openaux (1,746,946 samples, 0.07%)</title><rect x="1174.8" y="277" width="1.0" height="15.0" fill="rgb(252,217,52)" rx="2" ry="2" />
<text  x="1177.79" y="287.5" ></text>
</g>
<g >
<title>[unknown] (1,746,946 samples, 0.07%)</title><rect x="1174.8" y="85" width="1.0" height="15.0" fill="rgb(210,24,5)" rx="2" ry="2" />
<text  x="1177.79" y="95.5" ></text>
</g>
<g >
<title>[unknown] (205,300 samples, 0.01%)</title><rect x="750.1" y="197" width="0.1" height="15.0" fill="rgb(210,24,5)" rx="2" ry="2" />
<text  x="753.09" y="207.5" ></text>
</g>
<g >
<title>[unknown] (1,746,946 samples, 0.07%)</title><rect x="1174.8" y="181" width="1.0" height="15.0" fill="rgb(210,24,5)" rx="2" ry="2" />
<text  x="1177.79" y="191.5" ></text>
</g>
<g >
<title>[unknown] (3,909,824 samples, 0.16%)</title><rect x="921.4" y="165" width="2.3" height="15.0" fill="rgb(210,24,5)" rx="2" ry="2" />
<text  x="924.39" y="175.5" ></text>
</g>
<g >
<title>__ieee754_pow_fma (37,701,587 samples, 1.58%)</title><rect x="757.2" y="389" width="21.8" height="15.0" fill="rgb(240,163,39)" rx="2" ry="2" />
<text  x="760.21" y="399.5" >_..</text>
</g>
<g >
<title>Py_DECREF (8,002,483 samples, 0.34%)</title><rect x="1158.2" y="261" width="4.7" height="15.0" fill="rgb(205,4,1)" rx="2" ry="2" />
<text  x="1161.24" y="271.5" ></text>
</g>
<g >
<title>PyFloat_FromDouble (12,712,320 samples, 0.53%)</title><rect x="721.7" y="373" width="7.3" height="15.0" fill="rgb(253,222,53)" rx="2" ry="2" />
<text  x="724.68" y="383.5" ></text>
</g>
<g >
<title>_dl_start (1,746,946 samples, 0.07%)</title><rect x="1174.8" y="373" width="1.0" height="15.0" fill="rgb(237,151,36)" rx="2" ry="2" />
<text  x="1177.79" y="383.5" ></text>
</g>
<g >
<title>PyNumber_Multiply (59,313,057 samples, 2.49%)</title><rect x="940.8" y="277" width="34.4" height="15.0" fill="rgb(234,134,32)" rx="2" ry="2" />
<text  x="943.85" y="287.5" >Py..</text>
</g>
<g >
<title>PyList_GetItemDouble (36,006,746 samples, 1.51%)</title><rect x="830.9" y="277" width="20.8" height="15.0" fill="rgb(206,7,1)" rx="2" ry="2" />
<text  x="833.87" y="287.5" ></text>
</g>
<g >
<title>[unknown] (220,562 samples, 0.01%)</title><rect x="750.1" y="245" width="0.1" height="15.0" fill="rgb(210,24,5)" rx="2" ry="2" />
<text  x="753.08" y="255.5" ></text>
</g>
<g >
<title>[unknown] (1,746,946 samples, 0.07%)</title><rect x="1174.8" y="37" width="1.0" height="15.0" fill="rgb(210,24,5)" rx="2" ry="2" />
<text  x="1177.79" y="47.5" ></text>
</g>
<g >
<title>open_path (1,746,946 samples, 0.07%)</title><rect x="1174.8" y="245" width="1.0" height="15.0" fill="rgb(224,91,21)" rx="2" ry="2" />
<text  x="1177.79" y="255.5" ></text>
</g>
<g >
<title>Py_DECREF (440,903,428 samples, 18.49%)</title><rect x="466.5" y="389" width="255.2" height="15.0" fill="rgb(205,4,1)" rx="2" ry="2" />
<text  x="469.50" y="399.5" >Py_DECREF</text>
</g>
<g >
<title>advance (370,094,821 samples, 15.52%)</title><rect x="1175.8" y="389" width="214.2" height="15.0" fill="rgb(249,204,48)" rx="2" ry="2" />
<text  x="1178.80" y="399.5" >advance</text>
</g>
<g >
<title>PyFloat_FromDouble (86,895,531 samples, 3.64%)</title><rect x="10.0" y="389" width="50.3" height="15.0" fill="rgb(253,222,53)" rx="2" ry="2" />
<text  x="13.00" y="399.5" >PyFlo..</text>
</g>
<g >
<title>PyInt_FromLong (16,903,858 samples, 0.71%)</title><rect x="821.1" y="277" width="9.8" height="15.0" fill="rgb(226,97,23)" rx="2" ry="2" />
<text  x="824.08" y="287.5" ></text>
</g>
<g >
<title>[unknown] (205,300 samples, 0.01%)</title><rect x="750.1" y="229" width="0.1" height="15.0" fill="rgb(210,24,5)" rx="2" ry="2" />
<text  x="753.09" y="239.5" ></text>
</g>
<g >
<title>PyObject_CompareBool (65,914,779 samples, 2.76%)</title><rect x="428.4" y="389" width="38.1" height="15.0" fill="rgb(230,118,28)" rx="2" ry="2" />
<text  x="431.35" y="399.5" >PyO..</text>
</g>
<g >
<title>[unknown] (220,562 samples, 0.01%)</title><rect x="750.1" y="261" width="0.1" height="15.0" fill="rgb(210,24,5)" rx="2" ry="2" />
<text  x="753.08" y="271.5" ></text>
</g>
<g >
<title>[unknown] (4,465,250 samples, 0.19%)</title><rect x="1155.7" y="261" width="2.5" height="15.0" fill="rgb(210,24,5)" rx="2" ry="2" />
<text  x="1158.66" y="271.5" ></text>
</g>
<g >
<title>[unknown] (3,909,824 samples, 0.16%)</title><rect x="921.4" y="117" width="2.3" height="15.0" fill="rgb(210,24,5)" rx="2" ry="2" />
<text  x="924.39" y="127.5" ></text>
</g>
<g >
<title>all (2,384,399,426 samples, 100%)</title><rect x="10.0" y="421" width="1380.0" height="15.0" fill="rgb(213,39,9)" rx="2" ry="2" />
<text  x="13.00" y="431.5" ></text>
</g>
<g >
<title>[unknown] (220,562 samples, 0.01%)</title><rect x="750.1" y="293" width="0.1" height="15.0" fill="rgb(210,24,5)" rx="2" ry="2" />
<text  x="753.08" y="303.5" ></text>
</g>
<g >
<title>[unknown] (3,909,824 samples, 0.16%)</title><rect x="921.4" y="197" width="2.3" height="15.0" fill="rgb(210,24,5)" rx="2" ry="2" />
<text  x="924.39" y="207.5" ></text>
</g>
<g >
<title>[unknown] (1,746,946 samples, 0.07%)</title><rect x="1174.8" y="133" width="1.0" height="15.0" fill="rgb(210,24,5)" rx="2" ry="2" />
<text  x="1177.79" y="143.5" ></text>
</g>
<g >
<title>[unknown] (205,300 samples, 0.01%)</title><rect x="750.1" y="149" width="0.1" height="15.0" fill="rgb(210,24,5)" rx="2" ry="2" />
<text  x="753.09" y="159.5" ></text>
</g>
<g >
<title>advance (12,093,513 samples, 0.51%)</title><rect x="750.2" y="373" width="7.0" height="15.0" fill="rgb(249,204,48)" rx="2" ry="2" />
<text  x="753.21" y="383.5" ></text>
</g>
<g >
<title>[unknown] (205,300 samples, 0.01%)</title><rect x="750.1" y="165" width="0.1" height="15.0" fill="rgb(210,24,5)" rx="2" ry="2" />
<text  x="753.09" y="175.5" ></text>
</g>
<g >
<title>[unknown] (220,562 samples, 0.01%)</title><rect x="750.1" y="325" width="0.1" height="15.0" fill="rgb(210,24,5)" rx="2" ry="2" />
<text  x="753.08" y="335.5" ></text>
</g>
<g >
<title>__pow (20,592,448 samples, 0.86%)</title><rect x="1162.9" y="277" width="11.9" height="15.0" fill="rgb(226,100,24)" rx="2" ry="2" />
<text  x="1165.87" y="287.5" ></text>
</g>
<g >
<title>open_verify (1,746,946 samples, 0.07%)</title><rect x="1174.8" y="229" width="1.0" height="15.0" fill="rgb(226,97,23)" rx="2" ry="2" />
<text  x="1177.79" y="239.5" ></text>
</g>
<g >
<title>[unknown] (3,909,824 samples, 0.16%)</title><rect x="921.4" y="245" width="2.3" height="15.0" fill="rgb(210,24,5)" rx="2" ry="2" />
<text  x="924.39" y="255.5" ></text>
</g>
<g >
<title>[unknown] (1,746,946 samples, 0.07%)</title><rect x="1174.8" y="101" width="1.0" height="15.0" fill="rgb(210,24,5)" rx="2" ry="2" />
<text  x="1177.79" y="111.5" ></text>
</g>
<g >
<title>[unknown] (220,562 samples, 0.01%)</title><rect x="750.1" y="309" width="0.1" height="15.0" fill="rgb(210,24,5)" rx="2" ry="2" />
<text  x="753.08" y="319.5" ></text>
</g>
<g >
<title>[unknown] (1,746,946 samples, 0.07%)</title><rect x="1174.8" y="69" width="1.0" height="15.0" fill="rgb(210,24,5)" rx="2" ry="2" />
<text  x="1177.79" y="79.5" ></text>
</g>
<g >
<title>main (662,728,594 samples, 27.79%)</title><rect x="791.2" y="341" width="383.6" height="15.0" fill="rgb(243,179,42)" rx="2" ry="2" />
<text  x="794.23" y="351.5" >main</text>
</g>
<g >
<title>nbody_p0 (2,384,397,802 samples, 100.00%)</title><rect x="10.0" y="405" width="1380.0" height="15.0" fill="rgb(227,105,25)" rx="2" ry="2" />
<text  x="13.00" y="415.5" >nbody_p0</text>
</g>
<g >
<title>_dl_map_object_deps (1,746,946 samples, 0.07%)</title><rect x="1174.8" y="309" width="1.0" height="15.0" fill="rgb(219,68,16)" rx="2" ry="2" />
<text  x="1177.79" y="319.5" ></text>
</g>
<g >
<title>PyBool_New (4,265,276 samples, 0.18%)</title><rect x="811.5" y="277" width="2.5" height="15.0" fill="rgb(218,60,14)" rx="2" ry="2" />
<text  x="814.51" y="287.5" ></text>
</g>
<g >
<title>[unknown] (1,746,946 samples, 0.07%)</title><rect x="1174.8" y="117" width="1.0" height="15.0" fill="rgb(210,24,5)" rx="2" ry="2" />
<text  x="1177.79" y="127.5" ></text>
</g>
<g >
<title>PyList_GetItemObj (124,319,169 samples, 5.21%)</title><rect x="851.7" y="277" width="72.0" height="15.0" fill="rgb(223,86,20)" rx="2" ry="2" />
<text  x="854.71" y="287.5" >PyList_G..</text>
</g>
<g >
<title>pyc_user_main (662,728,594 samples, 27.79%)</title><rect x="791.2" y="325" width="383.6" height="15.0" fill="rgb(234,134,32)" rx="2" ry="2" />
<text  x="794.23" y="335.5" >pyc_user_main</text>
</g>
<g >
<title>[unknown] (205,300 samples, 0.01%)</title><rect x="750.1" y="213" width="0.1" height="15.0" fill="rgb(210,24,5)" rx="2" ry="2" />
<text  x="753.09" y="223.5" ></text>
</g>
<g >
<title>PyList_GetItemDouble (57,840,134 samples, 2.43%)</title><rect x="84.7" y="389" width="33.5" height="15.0" fill="rgb(206,7,1)" rx="2" ry="2" />
<text  x="87.71" y="399.5" >Py..</text>
</g>
<g >
<title>_dl_start_final (1,746,946 samples, 0.07%)</title><rect x="1174.8" y="357" width="1.0" height="15.0" fill="rgb(252,216,51)" rx="2" ry="2" />
<text  x="1177.79" y="367.5" ></text>
</g>
<g >
<title>PyList_GetItemDouble (7,773,664 samples, 0.33%)</title><rect x="729.0" y="373" width="4.5" height="15.0" fill="rgb(206,7,1)" rx="2" ry="2" />
<text  x="732.03" y="383.5" ></text>
</g>
<g >
<title>[unknown] (3,909,824 samples, 0.16%)</title><rect x="921.4" y="133" width="2.3" height="15.0" fill="rgb(210,24,5)" rx="2" ry="2" />
<text  x="924.39" y="143.5" ></text>
</g>
<g >
<title>[unknown] (1,746,946 samples, 0.07%)</title><rect x="1174.8" y="197" width="1.0" height="15.0" fill="rgb(210,24,5)" rx="2" ry="2" />
<text  x="1177.79" y="207.5" ></text>
</g>
<g >
<title>[unknown] (205,300 samples, 0.01%)</title><rect x="750.1" y="181" width="0.1" height="15.0" fill="rgb(210,24,5)" rx="2" ry="2" />
<text  x="753.09" y="191.5" ></text>
</g>
<g >
<title>Py_DECREF (12,123,429 samples, 0.51%)</title><rect x="743.1" y="373" width="7.0" height="15.0" fill="rgb(205,4,1)" rx="2" ry="2" />
<text  x="746.06" y="383.5" ></text>
</g>
<g >
<title>log_inline (21,213,269 samples, 0.89%)</title><rect x="766.8" y="373" width="12.2" height="15.0" fill="rgb(241,169,40)" rx="2" ry="2" />
<text  x="769.75" y="383.5" ></text>
</g>
<g >
<title>[unknown] (1,746,946 samples, 0.07%)</title><rect x="1174.8" y="53" width="1.0" height="15.0" fill="rgb(210,24,5)" rx="2" ry="2" />
<text  x="1177.79" y="63.5" ></text>
</g>
<g >
<title>[unknown] (220,562 samples, 0.01%)</title><rect x="750.1" y="373" width="0.1" height="15.0" fill="rgb(210,24,5)" rx="2" ry="2" />
<text  x="753.08" y="383.5" ></text>
</g>
<g >
<title>exp_inline (16,488,318 samples, 0.69%)</title><rect x="757.2" y="373" width="9.6" height="15.0" fill="rgb(220,72,17)" rx="2" ry="2" />
<text  x="760.21" y="383.5" ></text>
</g>
<g >
<title>pyc_py_main (662,728,594 samples, 27.79%)</title><rect x="791.2" y="309" width="383.6" height="15.0" fill="rgb(216,53,12)" rx="2" ry="2" />
<text  x="794.23" y="319.5" >pyc_py_main</text>
</g>
<g >
<title>[unknown] (220,562 samples, 0.01%)</title><rect x="750.1" y="277" width="0.1" height="15.0" fill="rgb(210,24,5)" rx="2" ry="2" />
<text  x="753.08" y="287.5" ></text>
</g>
<g >
<title>PyList_GetItemObj (8,194,113 samples, 0.34%)</title><rect x="1162.9" y="261" width="4.7" height="15.0" fill="rgb(223,86,20)" rx="2" ry="2" />
<text  x="1165.87" y="271.5" ></text>
</g>
<g >
<title>[unknown] (3,909,824 samples, 0.16%)</title><rect x="921.4" y="101" width="2.3" height="15.0" fill="rgb(210,24,5)" rx="2" ry="2" />
<text  x="924.39" y="111.5" ></text>
</g>
<g >
<title>PyList_SizeBoxed (4,185,694 samples, 0.18%)</title><rect x="931.2" y="277" width="2.4" height="15.0" fill="rgb(217,59,14)" rx="2" ry="2" />
<text  x="934.19" y="287.5" ></text>
</g>
<g >
<title>[unknown] (220,562 samples, 0.01%)</title><rect x="750.1" y="357" width="0.1" height="15.0" fill="rgb(210,24,5)" rx="2" ry="2" />
<text  x="753.08" y="367.5" ></text>
</g>
<g >
<title>PyNumber_Add (24,546,441 samples, 1.03%)</title><rect x="320.3" y="389" width="14.3" height="15.0" fill="rgb(253,224,53)" rx="2" ry="2" />
<text  x="323.34" y="399.5" ></text>
</g>
<g >
<title>[unknown] (4,343,945 samples, 0.18%)</title><rect x="975.2" y="261" width="2.5" height="15.0" fill="rgb(210,24,5)" rx="2" ry="2" />
<text  x="978.17" y="271.5" ></text>
</g>
<g >
<title>PyNumber_Multiply (162,070,303 samples, 6.80%)</title><rect x="334.6" y="389" width="93.8" height="15.0" fill="rgb(234,134,32)" rx="2" ry="2" />
<text  x="337.55" y="399.5" >PyNumber_Mu..</text>
</g>
<g >
<title>__libc_start_call_main (662,728,594 samples, 27.79%)</title><rect x="791.2" y="357" width="383.6" height="15.0" fill="rgb(210,26,6)" rx="2" ry="2" />
<text  x="794.23" y="367.5" >__libc_start_call_main</text>
</g>
<g >
<title>_dl_map_object (1,746,946 samples, 0.07%)</title><rect x="1174.8" y="261" width="1.0" height="15.0" fill="rgb(248,199,47)" rx="2" ry="2" />
<text  x="1177.79" y="271.5" ></text>
</g>
<g >
<title>[unknown] (3,909,824 samples, 0.16%)</title><rect x="921.4" y="181" width="2.3" height="15.0" fill="rgb(210,24,5)" rx="2" ry="2" />
<text  x="924.39" y="191.5" ></text>
</g>
<g >
<title>[unknown] (1,746,946 samples, 0.07%)</title><rect x="1174.8" y="149" width="1.0" height="15.0" fill="rgb(210,24,5)" rx="2" ry="2" />
<text  x="1177.79" y="159.5" ></text>
</g>
<g >
<title>[unknown] (3,909,824 samples, 0.16%)</title><rect x="921.4" y="85" width="2.3" height="15.0" fill="rgb(210,24,5)" rx="2" ry="2" />
<text  x="924.39" y="95.5" ></text>
</g>
<g >
<title>__GI__dl_catch_exception (1,746,946 samples, 0.07%)</title><rect x="1174.8" y="293" width="1.0" height="15.0" fill="rgb(232,125,30)" rx="2" ry="2" />
<text  x="1177.79" y="303.5" ></text>
</g>
<g >
<title>Py_DECREF (12,398,335 samples, 0.52%)</title><rect x="1167.6" y="261" width="7.2" height="15.0" fill="rgb(205,4,1)" rx="2" ry="2" />
<text  x="1170.62" y="271.5" ></text>
</g>
<g >
<title>[unknown] (1,746,946 samples, 0.07%)</title><rect x="1174.8" y="165" width="1.0" height="15.0" fill="rgb(210,24,5)" rx="2" ry="2" />
<text  x="1177.79" y="175.5" ></text>
</g>
<g >
<title>PyNumber_Multiply (4,005,245 samples, 0.17%)</title><rect x="740.7" y="373" width="2.4" height="15.0" fill="rgb(234,134,32)" rx="2" ry="2" />
<text  x="743.75" y="383.5" ></text>
</g>
<g >
<title>[unknown] (3,909,824 samples, 0.16%)</title><rect x="921.4" y="213" width="2.3" height="15.0" fill="rgb(210,24,5)" rx="2" ry="2" />
<text  x="924.39" y="223.5" ></text>
</g>
<g >
<title>PyInt_FromLong (42,187,569 samples, 1.77%)</title><rect x="60.3" y="389" width="24.4" height="15.0" fill="rgb(226,97,23)" rx="2" ry="2" />
<text  x="63.29" y="399.5" >P..</text>
</g>
<g >
<title>Py_DECREF (311,964,067 samples, 13.08%)</title><rect x="977.7" y="277" width="180.5" height="15.0" fill="rgb(205,4,1)" rx="2" ry="2" />
<text  x="980.69" y="287.5" >Py_DECREF</text>
</g>
<g >
<title>PyList_SetItemDouble (49,794,089 samples, 2.09%)</title><rect x="291.5" y="389" width="28.8" height="15.0" fill="rgb(229,111,26)" rx="2" ry="2" />
<text  x="294.52" y="399.5" >Py..</text>
</g>
<g >
<title>PyList_SetItemDouble (13,021,498 samples, 0.55%)</title><rect x="923.7" y="277" width="7.5" height="15.0" fill="rgb(229,111,26)" rx="2" ry="2" />
<text  x="926.66" y="287.5" ></text>
</g>
<g >
<title>[unknown] (220,562 samples, 0.01%)</title><rect x="750.1" y="341" width="0.1" height="15.0" fill="rgb(210,24,5)" rx="2" ry="2" />
<text  x="753.08" y="351.5" ></text>
</g>
<g >
<title>__GI___open64_nocancel (1,746,946 samples, 0.07%)</title><rect x="1174.8" y="213" width="1.0" height="15.0" fill="rgb(218,63,15)" rx="2" ry="2" />
<text  x="1177.79" y="223.5" ></text>
</g>
<g >
<title>PyNumber_Add (12,491,865 samples, 0.52%)</title><rect x="933.6" y="277" width="7.2" height="15.0" fill="rgb(253,224,53)" rx="2" ry="2" />
<text  x="936.62" y="287.5" ></text>
</g>
<g >
<title>advance (662,728,594 samples, 27.79%)</title><rect x="791.2" y="293" width="383.6" height="15.0" fill="rgb(249,204,48)" rx="2" ry="2" />
<text  x="794.23" y="303.5" >advance</text>
</g>
<g >
<title>_start (664,475,540 samples, 27.87%)</title><rect x="791.2" y="389" width="384.6" height="15.0" fill="rgb(245,185,44)" rx="2" ry="2" />
<text  x="794.23" y="399.5" >_start</text>
</g>
<g >
<title>PyList_SetItemDouble (12,460,492 samples, 0.52%)</title><rect x="733.5" y="373" width="7.2" height="15.0" fill="rgb(229,111,26)" rx="2" ry="2" />
<text  x="736.53" y="383.5" ></text>
</g>
<g >
<title>dl_main (1,746,946 samples, 0.07%)</title><rect x="1174.8" y="325" width="1.0" height="15.0" fill="rgb(236,145,34)" rx="2" ry="2" />
<text  x="1177.79" y="335.5" ></text>
</g>
<g >
<title>PyObject_CompareBool (4,343,945 samples, 0.18%)</title><rect x="975.2" y="277" width="2.5" height="15.0" fill="rgb(230,118,28)" rx="2" ry="2" />
<text  x="978.17" y="287.5" ></text>
</g>
</g>
</svg>
